<svg xmlns="http://www.w3.org/2000/svg" viewBox="0 0 29.76 27.54"><defs><style>.cls-1{fill:#265fbf;}</style></defs><title>Employee Management</title><g id="Layer_2" data-name="Layer 2"><g id="Layer_1-2" data-name="Layer 1"><path class="cls-1" d="M27.5,0H2.13A2.13,2.13,0,0,0,0,2.17V21.25a2.16,2.16,0,0,0,2.13,2.17H14.5a2.2,2.2,0,0,0,.72.77,1.26,1.26,0,0,1,.55,1.09v.41l0,0a1.08,1.08,0,0,0-.27.77c0,.27,0,.41,0,.5s0,.23,0,.54h.68a1.86,1.86,0,0,0,0-.63c0-.09,0-.23,0-.45s0-.18.09-.23a.17.17,0,0,1,.13,0h5a.19.19,0,0,1,.14,0,.4.4,0,0,1,.09.23c0,.36-.05.4-.05.4s0,.14,0,.68h.68v-.4a2.75,2.75,0,0,0,.09-.64,1.24,1.24,0,0,0-.18-.68h0a2.53,2.53,0,0,1,.18-.9c0-.09.09-.14.14-.23A5.71,5.71,0,0,0,23,23.42h4.58a2.17,2.17,0,0,0,2.17-2.17V2.17A2.35,2.35,0,0,0,27.5,0ZM23.06,20.07V18.12a1.17,1.17,0,0,0-1.72-1,1.17,1.17,0,0,0-1.13-.86,1.29,1.29,0,0,0-.68.23,1.25,1.25,0,0,0-1-.55A2.19,2.19,0,0,0,18,16V14.81a1.18,1.18,0,0,0-2.36,0v4a.86.86,0,0,0-.49-.09A1.19,1.19,0,0,0,14,19.93v.41H3.13V3.08H25.32V20.34H23.1A.88.88,0,0,1,23.06,20.07Zm-.73,2.85a4.58,4.58,0,0,1-.58,1.45,2,2,0,0,1-.14.23,3.25,3.25,0,0,0-.27.86H16.45v-.18a2,2,0,0,0-.87-1.63,2,2,0,0,1-.81-1.54V19.89a.5.5,0,0,1,1,0v1.27h.68V19.71h0V14.77a.5.5,0,1,1,1,0v4.89h.68V17a.5.5,0,0,1,1,0v2.54h.68V17.4a.5.5,0,1,1,1,0v2.71h.59V18.17a.5.5,0,0,1,1,0v1.94h0A14.31,14.31,0,0,1,22.33,22.92ZM29,21.25a1.51,1.51,0,0,1-1.49,1.49H23.06c0-.5,0-1.18,0-1.72H26V2.4H2.45V21H14.13v1.13h0a2.13,2.13,0,0,0,.1.55H2.13A1.47,1.47,0,0,1,.68,21.2v-19A1.46,1.46,0,0,1,2.13.72H27.5A1.5,1.5,0,0,1,29,2.17Z"/><path class="cls-1" d="M27.45,10.65a1.09,1.09,0,0,0,0,2.17,1.09,1.09,0,1,0,0-2.17Zm0,1.45a.41.41,0,0,1-.4-.41.41.41,0,1,1,.81,0A.41.41,0,0,1,27.45,12.1Z"/><path class="cls-1" d="M16.22,9.88A3.15,3.15,0,0,0,16,9.06V9a1.71,1.71,0,0,0-.64-.64L15,8.25l-1.4-.5-.55,1-1.31-.5-1.36,2.49H10.1L8.74,8.29l-1.36.5-.54-1-1.4.5-.28.13A1.63,1.63,0,0,0,4.53,9l0,0a2.72,2.72,0,0,0-.28.86c-.09.54-.13,1.13-.18,1.85v.37H5.66c0,.22,0,.49,0,.77v.36H14.9v-.36c0-.28,0-.5,0-.77h1.63v-.37C16.35,11.05,16.31,10.42,16.22,9.88ZM5.8,10.83c0,.09,0,.27-.09.59h-1c0-.55.09-1.05.13-1.45V9.92a1.77,1.77,0,0,1,.18-.59A1.41,1.41,0,0,1,5.44,9c0-.05.13-.05.18-.09l.86-.32.27.5a2.1,2.1,0,0,0-.63.63A4.35,4.35,0,0,0,5.8,10.83Zm.5,1.72a10.16,10.16,0,0,1,.18-1.63v-.09a1.72,1.72,0,0,1,.22-.77,1.22,1.22,0,0,1,.68-.55l1-.36,1.26,2.36h1.14L12.1,9.15l1,.36a2,2,0,0,0,.22.09,1.28,1.28,0,0,1,.46.41v.05a1.37,1.37,0,0,1,.22.68v.09c.09.5.14,1.08.19,1.72Zm8.47-1.09c0-.27,0-.5-.09-.72a2.67,2.67,0,0,0-.32-1v0a1.66,1.66,0,0,0-.63-.63l.27-.5.86.31A.33.33,0,0,1,15,9a.89.89,0,0,1,.36.36v0a1,1,0,0,1,.18.59v.05c.05.41.09.9.14,1.45h-1Z"/><path class="cls-1" d="M8.15,8.11A2.9,2.9,0,0,0,8.74,8a2.37,2.37,0,0,0,1.54.63A2.13,2.13,0,0,0,11.82,8a3.13,3.13,0,0,0,.59.09,2,2,0,1,0,0-4,1.75,1.75,0,0,0-1,.32,2.18,2.18,0,0,0-1.09-.27,2.14,2.14,0,0,0-1.08.27,2.19,2.19,0,0,0-1-.32,2,2,0,0,0-2,2A2,2,0,0,0,8.15,8.11Zm5.49-2a1.32,1.32,0,0,1-1.32,1.31h-.13a2.61,2.61,0,0,0,.27-1A2,2,0,0,0,11.87,5a1.89,1.89,0,0,1,.45-.09A1.25,1.25,0,0,1,13.64,6.12Zm-1.86.27a1.54,1.54,0,1,1-1.54-1.54A1.53,1.53,0,0,1,11.78,6.39ZM8.15,4.85a1.25,1.25,0,0,1,.46.09A2.19,2.19,0,0,0,8,6.39a1.81,1.81,0,0,0,.27,1H8.15A1.31,1.31,0,0,1,6.84,6.07,1.24,1.24,0,0,1,8.15,4.85Z"/><polygon class="cls-1" points="11.91 15.68 11.23 15.68 11.23 18.85 9.83 18.85 9.83 14.59 9.15 14.59 9.15 18.85 7.75 18.85 7.75 16.22 7.07 16.22 7.07 18.85 5.71 18.85 5.71 17.08 5.03 17.08 5.03 18.85 4.3 18.85 4.3 19.53 12.59 19.53 12.59 18.85 11.91 18.85 11.91 15.68"/></g></g></svg>