<svg width="21" height="20" viewBox="0 0 21 20" fill="none" xmlns="http://www.w3.org/2000/svg">
<mask id="mask0" mask-type="alpha" maskUnits="userSpaceOnUse" x="0" y="0" width="21" height="20">
<path fill-rule="evenodd" clip-rule="evenodd" d="M0.416992 20H20.417V0H0.416992V20Z" fill="white"/>
</mask>
<g mask="url(#mask0)">
<path fill-rule="evenodd" clip-rule="evenodd" d="M19.3132 0H1.5208C0.911121 0 0.416992 0.494129 0.416992 1.10381V18.8962C0.416992 19.5058 0.911121 20.0001 1.5208 20.0001H11.0997V12.255H8.49323V9.23655H11.0997V7.01057C11.0997 4.42738 12.6774 3.02075 14.9818 3.02075C16.0857 3.02075 17.0344 3.10288 17.3108 3.1396V5.83925L15.7126 5.84C14.4593 5.84 14.2166 6.43551 14.2166 7.30942V9.23655H17.2056L16.8165 12.255H14.2166V20.0001H19.3132C19.9228 20.0001 20.417 19.5058 20.417 18.8962V1.10381C20.417 0.494129 19.9228 0 19.3132 0Z" fill="white"/>
</g>
</svg>
