<svg width="21" height="20" viewBox="0 0 21 20" fill="none" xmlns="http://www.w3.org/2000/svg">
<mask id="mask0" mask-type="alpha" maskUnits="userSpaceOnUse" x="0" y="0" width="21" height="20">
<path fill-rule="evenodd" clip-rule="evenodd" d="M0.407227 19.9958H20.4072V0H0.407227V19.9958Z" fill="white"/>
</mask>
<g mask="url(#mask0)">
<path fill-rule="evenodd" clip-rule="evenodd" d="M17.8834 5.32402C17.8834 5.61804 17.6389 5.85643 17.3373 5.85643H14.6066C14.305 5.85643 14.0605 5.61804 14.0605 5.32402V2.66199C14.0605 2.36796 14.305 2.12958 14.6066 2.12958H17.3373C17.6389 2.12958 17.8834 2.36796 17.8834 2.66199V5.32402ZM17.8834 16.5048C17.8834 16.7988 17.6389 17.0372 17.3373 17.0372H3.13786C2.83626 17.0372 2.59173 16.7988 2.59173 16.5048V7.98627H4.45636C4.30904 8.49398 4.23012 9.02979 4.23012 9.58349C4.23012 12.8179 6.91975 15.44 10.2376 15.44C13.5554 15.44 16.245 12.8179 16.245 9.58349C16.245 9.02979 16.1661 8.49398 16.0188 7.98627H17.8834V16.5048ZM10.2376 5.85669C12.3489 5.85669 14.0605 7.52525 14.0605 9.58354C14.0605 11.6418 12.3489 13.3104 10.2376 13.3104C8.12625 13.3104 6.41467 11.6418 6.41467 9.58354C6.41467 7.52525 8.12625 5.85669 10.2376 5.85669ZM17.3373 0H3.13788C1.62981 0 0.407227 1.19186 0.407227 2.66204V16.5046C0.407227 17.9748 1.62981 19.1667 3.13788 19.1667H17.3373C18.8454 19.1667 20.0679 17.9748 20.0679 16.5046V2.66204C20.0679 1.19186 18.8454 0 17.3373 0Z" fill="white"/>
</g>
</svg>
