<svg xmlns="http://www.w3.org/2000/svg" viewBox="0 0 30 30"><defs><style>.cls-1{fill:#265fbf;}</style></defs><title>Leave Management</title><g id="Layer_2" data-name="Layer 2"><g id="Layer_1-2" data-name="Layer 1"><rect class="cls-1" x="24" width="6" height="3"/><path class="cls-1" d="M21,18.09c-.31,0-.61,0-.91.06l.12-.23A5.29,5.29,0,0,0,21,18a6,6,0,1,0-5.21-8.91,6.43,6.43,0,0,0-1.58,0A6,6,0,1,0,9,18a5.29,5.29,0,0,0,.79-.08,1.71,1.71,0,0,0,.13.23c-.31,0-.61-.06-.92-.06-4.26,0-9,2.1-9,5.12V25.5A1.5,1.5,0,0,0,1.5,27H6v1.5A1.5,1.5,0,0,0,7.5,30h15A1.5,1.5,0,0,0,24,28.5V27h4.5A1.5,1.5,0,0,0,30,25.5V23.2C30,20.19,25.26,18.09,21,18.09ZM21,9a3,3,0,0,1,0,6,5.87,5.87,0,0,0-.15-1.26l-.06-.28a5.77,5.77,0,0,0-.42-1.14l-.06-.11a6.11,6.11,0,0,0-.63-1l-.13-.16a6,6,0,0,0-.9-.85l0,0A3,3,0,0,1,21,9Zm-6,3a3,3,0,0,1,1.12.23A2.94,2.94,0,0,1,18,15a2.74,2.74,0,0,1-.12.78A3,3,0,1,1,15,12ZM6,12A3,3,0,0,1,9,9a3,3,0,0,1,2.39,1.2l-.05.05a6.84,6.84,0,0,0-.88.82l-.16.21a6.22,6.22,0,0,0-.6.91.57.57,0,0,1-.08.13,6.45,6.45,0,0,0-.41,1.14l-.06.28A5.87,5.87,0,0,0,9,15,3,3,0,0,1,6,12ZM3,23.25c0-.55,2.46-2.16,6-2.16a10.91,10.91,0,0,1,2.82.36l-.25.07c-.34.09-.67.18-1,.29l-.39.14A10.32,10.32,0,0,0,9,22.46c-.09,0-.17.1-.26.15a8,8,0,0,0-.75.47l-.36.27a5.56,5.56,0,0,0-.5.46,2,2,0,0,0-.22.19H3ZM9,27v-.8c.36-.68,2.22-1.76,4.75-2a12.06,12.06,0,0,1,1.48-.05c.33,0,.66,0,1,.05a9.07,9.07,0,0,1,.91.14c2.06.4,3.52,1.31,3.84,1.9,0,0,0,0,0,0V27Zm18-3H23.07c0-.05-.11-.09-.15-.14a8.18,8.18,0,0,0-.61-.55L22,23.1c-.27-.19-.57-.37-.88-.55-.06,0-.1-.06-.15-.08a10.27,10.27,0,0,0-1.21-.53l-.35-.12c-.33-.11-.68-.21-1-.3l-.23-.07A11,11,0,0,1,21,21.09c3.54,0,5.85,1.61,6,2.11Z"/></g></g></svg>