<svg xmlns="http://www.w3.org/2000/svg" viewBox="0 0 24.1 30"><defs><style>.cls-1{fill:#265fbf;fill-rule:evenodd;}</style></defs><title>Payroll</title><g id="Layer_2" data-name="Layer 2"><g id="Layer_1-2" data-name="Layer 1"><path class="cls-1" d="M22.71,22V1.39L8.82,1.46V3.31h12V22ZM19.4,25.32V4.71L5.51,4.77V6.63h12V25.32Zm-4.58-7.71A6.09,6.09,0,1,0,8.74,23.7a6.08,6.08,0,0,0,6.08-6.09ZM24.1,0V23.47H20.79v3.31H17.48v.92L15.18,30l-1.62-1.62L11.92,30l-1.6-1.6L8.69,30l-1.6-1.6L5.47,30,3.86,28.39,2.25,30,0,27.75V6.63H4.05V3.31H7.36V0ZM10.82,18a2.34,2.34,0,0,1-.57,2.83,2.21,2.21,0,0,1-.9.39l.11.84H8l.11-.87a2.17,2.17,0,0,1-.85-.41,2.64,2.64,0,0,1-.83-1.54L7.54,19a1.21,1.21,0,0,0,1.21,1.08,1.15,1.15,0,0,0,.85-.28.9.9,0,0,0,.24-.94c-.17-.42-.7-.54-1.11-.66a4.69,4.69,0,0,1-1.33-.53,2,2,0,0,1,.27-3.39,2.13,2.13,0,0,1,.43-.13l-.12-1H9.46l-.13,1a2.07,2.07,0,0,1,.69.27,1.85,1.85,0,0,1,.8,1.21l-1.18.24a1,1,0,0,0-.29-.44,1.05,1.05,0,0,0-.6-.2c-.38,0-.89.09-1,.48a.61.61,0,0,0,.13.63,3,3,0,0,0,1.08.46,5.07,5.07,0,0,1,1.25.5,1.73,1.73,0,0,1,.64.7Z"/></g></g></svg>