<svg width="20" height="20" viewBox="0 0 20 20" fill="none" xmlns="http://www.w3.org/2000/svg">
<path d="M10 20C15.5228 20 20 15.5228 20 10C20 4.47715 15.5228 0 10 0C4.47715 0 0 4.47715 0 10C0 15.5228 4.47715 20 10 20Z" fill="white"/>
<path d="M14.0599 14.7135V14.7143C13.8908 14.7143 13.7858 14.6618 13.6283 14.5693C11.1124 13.0526 8.18495 12.9893 5.29328 13.5818C5.13578 13.6226 4.92995 13.6868 4.81328 13.6868C4.42161 13.6868 4.17578 13.376 4.17578 13.0493C4.17578 12.6335 4.42161 12.436 4.72495 12.3718C8.02745 11.6426 11.4024 11.7068 14.2808 13.4285C14.5266 13.586 14.6724 13.7268 14.6724 14.0935C14.6724 14.4585 14.3858 14.7135 14.0599 14.7135Z" fill="#212121"/>
<path d="M15.1456 12.0693H15.1448C14.9348 12.0693 14.794 11.9768 14.6481 11.9001C12.1273 10.4085 8.37063 9.8068 5.02729 10.7143C4.83396 10.7668 4.72896 10.8193 4.54729 10.8193C4.11562 10.8193 3.76562 10.4685 3.76562 10.0376C3.76562 9.6068 3.97562 9.32013 4.39062 9.20346C5.51146 8.88846 6.65646 8.6543 8.33396 8.6543C10.9506 8.6543 13.479 9.30346 15.4715 10.4893C15.7981 10.6826 15.9273 10.9335 15.9273 11.2835C15.9231 11.7176 15.5848 12.0693 15.1456 12.0693Z" fill="#212121"/>
<path d="M3.79005 5.83174C5.20921 5.41591 6.79838 5.21924 8.52838 5.21924C11.4717 5.21924 14.5567 5.83174 16.8109 7.14674C17.1259 7.32841 17.3309 7.5784 17.3309 8.05757C17.3309 8.6059 16.8867 8.99674 16.3959 8.99674L16.395 8.99591C16.185 8.99591 16.0559 8.94341 15.8742 8.83841C13.0042 7.12507 7.87005 6.71424 4.54838 7.64174C4.40255 7.68174 4.22088 7.74591 4.02755 7.74591C3.49505 7.74591 3.08838 7.33007 3.08838 6.79424C3.08838 6.24674 3.42755 5.93674 3.79005 5.83174Z" fill="#212121"/>
</svg>
